<svg width="298" height="128" viewBox="0 0 298 128" fill="none" xmlns="http://www.w3.org/2000/svg">
<rect y="38" width="200" height="90" fill="#FFE606"/>
<rect x="23" y="21" width="200" height="90" fill="#06FF6A"/>
<rect x="41" width="200" height="90" fill="#FF06D7"/>
<path d="M75.776 65.64C82.688 65.64 86.4 61.544 86.4 54.248C86.4 48.68 84.544 45.096 78.656 39.912C74.048 35.88 72.576 33.512 72.576 30.248C72.576 27.176 73.856 25.96 76.096 25.96C78.336 25.96 79.616 27.176 79.616 30.376V32.68H86.272V30.824C86.272 23.656 82.88 19.56 76.032 19.56C69.184 19.56 65.536 23.656 65.536 30.696C65.536 35.816 67.456 39.464 73.344 44.648C77.952 48.68 79.36 51.048 79.36 54.76C79.36 58.088 77.952 59.24 75.712 59.24C73.472 59.24 72.064 58.088 72.064 54.888V51.816H65.408V54.376C65.408 61.544 68.864 65.64 75.776 65.64ZM90.4365 65H97.4765V50.728L100.293 45.032L106.245 65H113.605L105.093 36.648L113.477 20.2H106.437L97.4765 39.08V20.2H90.4365V65ZM116.937 65H123.977V20.2H116.937V65ZM129.249 65H147.873V58.6H136.289V20.2H129.249V65ZM151.249 65H169.873V58.6H158.289V20.2H151.249V65ZM173.249 65H180.289V44.84H187.841V65H194.881V20.2H187.841V38.44H180.289V20.2H173.249V65ZM220.86 69.16H222.716V62.76H221.628C220.348 62.76 219.516 62.632 219.004 61.736C220.284 59.88 220.988 57.448 220.988 54.376V30.824C220.988 23.656 217.212 19.56 210.3 19.56C203.388 19.56 199.612 23.656 199.612 30.824V54.376C199.612 61.544 203.388 65.64 210.3 65.64C212.028 65.64 213.628 65.384 214.972 64.872C215.804 68.2 218.236 69.16 220.86 69.16ZM210.3 59.24C208.06 59.24 206.652 58.024 206.652 54.824V30.376C206.652 27.176 208.06 25.96 210.3 25.96C212.54 25.96 213.948 27.176 213.948 30.376V54.824C213.948 58.024 212.54 59.24 210.3 59.24Z" fill="white"/>
</svg>
